<?xml version="1.0" encoding="utf-8"?>
<svg xmlns="http://www.w3.org/2000/svg" viewBox="11.089 9.803 341.911 79.476">
  <g transform="matrix(1, 0, 0, 1, 0, 0.068004)" style="">
    <title>Box D</title>
    <path style="fill: rgb(238, 236, 1);" d="M 13.9 11.845 L 143.843 11.845 C 143.843 11.845 324.843 11.845 324.843 11.845 L 353 48.9 L 324.843 87.101 C 324.843 87.101 143.843 87.101 143.843 87.101 L 13.9 87.101 C 13.9 87.101 13.9 87.101 13.9 87.101 L 13.9 11.845 C 13.9 11.845 13.9 11.845 13.9 11.845 Z">
      <title>Box</title>
    </path>
    <path d="M 35.096 64.523 L 35.526 61.083 L 35.526 37.863 L 35.096 34.423 L 45.932 34.423 C 46.792 34.423 47.738 34.487 48.77 34.616 C 49.802 34.745 50.856 34.982 51.931 35.326 C 53.006 35.67 54.03 36.193 55.005 36.895 C 55.98 37.598 56.854 38.508 57.628 39.626 C 58.402 40.744 59.018 42.127 59.477 43.775 C 59.936 45.424 60.165 47.395 60.165 49.688 C 60.165 52.325 59.871 54.533 59.284 56.31 C 58.696 58.087 57.9 59.521 56.897 60.61 C 55.894 61.699 54.769 62.524 53.522 63.083 C 52.275 63.642 50.999 64.021 49.695 64.222 C 48.39 64.423 47.136 64.523 45.932 64.523 L 35.096 64.523 Z M 41.46 59.449 L 44.47 59.449 C 45.846 59.449 47.107 59.37 48.254 59.213 C 49.401 59.055 50.404 58.668 51.264 58.051 C 52.124 57.435 52.783 56.468 53.242 55.149 C 53.701 53.83 53.93 51.996 53.93 49.645 C 53.93 47.094 53.665 45.123 53.135 43.732 C 52.604 42.342 51.888 41.353 50.985 40.765 C 50.082 40.178 49.064 39.819 47.932 39.69 C 46.799 39.561 45.645 39.497 44.47 39.497 L 41.46 39.497 L 41.46 59.449 Z" style="fill: rgb(255, 255, 255);"/>
  </g>
</svg>