<?xml version="1.0" encoding="utf-8"?>
<svg xmlns="http://www.w3.org/2000/svg" viewBox="11.089 9.803 486.911 79.476">
  <g transform="matrix(1, 0, 0, 1, 0, 0.067985)" style="">
    <title>Box D</title>
    <path style="fill: rgb(242, 133, 51);" d="M 13.9 11.845 L 143.843 11.845 C 143.843 11.845 469.843 11.845 469.843 11.845 L 498 48.9 L 469.843 87.101 C 469.843 87.101 143.843 87.101 143.843 87.101 L 13.9 87.101 C 13.9 87.101 13.9 87.101 13.9 87.101 L 13.9 11.845 C 13.9 11.845 13.9 11.845 13.9 11.845 Z">
      <title>Box</title>
    </path>
    <path d="M 35.096 64.523 L 35.526 61.083 L 35.526 37.863 L 35.096 34.423 L 54.274 34.423 L 54.274 39.927 L 51.694 39.497 L 41.46 39.497 L 41.46 47.667 L 52.984 47.667 L 52.984 53.257 L 50.404 52.913 L 41.46 52.913 L 41.46 61.083 L 41.89 64.523 L 35.096 64.523 Z" style="fill: rgb(255, 255, 255);"/>
  </g>
</svg>