<?xml version="1.0" encoding="utf-8"?>
<svg xmlns="http://www.w3.org/2000/svg" viewBox="11.089 9.803 544.911 79.476">
  <g transform="matrix(1, 0, 0, 1, 0, 0.067997)" style="">
    <title>Box D</title>
    <path style="fill: rgb(222, 37, 35);" d="M 13.9 11.845 L 143.843 11.845 C 143.843 11.845 527.843 11.845 527.843 11.845 L 556 48.9 L 527.843 87.101 C 527.843 87.101 143.843 87.101 143.843 87.101 L 13.9 87.101 C 13.9 87.101 13.9 87.101 13.9 87.101 L 13.9 11.845 C 13.9 11.845 13.9 11.845 13.9 11.845 Z">
      <title>Box</title>
    </path>
    <path d="M 50.748 65.039 C 45.359 65.039 41.317 63.713 38.622 61.062 C 35.927 58.41 34.58 54.576 34.58 49.559 C 34.58 45.804 35.261 42.779 36.623 40.486 C 37.984 38.193 39.855 36.523 42.234 35.476 C 44.613 34.43 47.294 33.907 50.275 33.907 C 52.052 33.907 53.665 34.086 55.113 34.444 C 56.56 34.803 57.9 35.34 59.133 36.057 L 59.133 40.873 L 58.101 41.303 C 56.782 40.472 55.442 39.877 54.081 39.518 C 52.719 39.16 51.436 38.981 50.232 38.981 C 48.426 38.981 46.814 39.346 45.395 40.077 C 43.976 40.808 42.858 41.941 42.041 43.474 C 41.224 45.008 40.815 46.993 40.815 49.43 C 40.815 52.727 41.646 55.307 43.309 57.17 C 44.972 59.033 47.537 59.965 51.006 59.965 C 52.181 59.965 53.357 59.822 54.532 59.535 C 55.707 59.248 56.997 58.775 58.402 58.116 L 59.606 58.116 L 59.606 63.233 C 58.545 63.778 57.284 64.215 55.822 64.545 C 54.36 64.874 52.669 65.039 50.748 65.039 Z M 53.93 63.233 L 53.93 49.731 L 59.606 49.731 L 59.606 63.233 L 53.93 63.233 Z M 47.953 52.698 L 47.953 47.366 L 59.606 47.366 L 59.606 52.268 L 50.533 52.268 L 47.953 52.698 Z" style="fill: rgb(255, 255, 255);"/>
  </g>
</svg>