<?xml version="1.0" encoding="utf-8"?>
<svg xmlns="http://www.w3.org/2000/svg" viewBox="11.089 9.803 277.911 79.476">
  <g transform="matrix(1, 0, 0, 1, 0, 0.068008)" style="">
    <title>Box C</title>
    <path style="fill: rgb(145, 206, 121);" d="M 13.9 11.845 L 143.843 11.845 C 143.843 11.845 260.843 11.845 260.843 11.845 L 289 48.9 L 260.843 87.101 C 260.843 87.101 143.843 87.101 143.843 87.101 L 13.9 87.101 C 13.9 87.101 13.9 87.101 13.9 87.101 L 13.9 11.845 C 13.9 11.845 13.9 11.845 13.9 11.845 Z">
      <title>Box</title>
    </path>
    <path d="M 48.684 65.039 C 45.531 65.039 42.908 64.401 40.815 63.126 C 38.722 61.85 37.16 60.037 36.128 57.686 C 35.096 55.335 34.58 52.569 34.58 49.387 C 34.58 45.804 35.175 42.872 36.365 40.593 C 37.554 38.314 39.181 36.63 41.245 35.541 C 43.309 34.452 45.645 33.907 48.254 33.907 C 49.773 33.907 51.228 34.079 52.619 34.423 C 54.009 34.767 55.335 35.269 56.596 35.928 L 56.596 40.83 L 55.564 41.26 C 54.446 40.515 53.35 39.999 52.275 39.712 C 51.2 39.425 50.132 39.282 49.071 39.282 C 47.466 39.282 46.04 39.619 44.793 40.292 C 43.546 40.966 42.571 42.041 41.869 43.517 C 41.166 44.994 40.815 46.95 40.815 49.387 C 40.815 52.913 41.575 55.5 43.094 57.148 C 44.613 58.797 46.649 59.621 49.2 59.621 C 50.347 59.621 51.479 59.463 52.597 59.148 C 53.715 58.833 54.819 58.36 55.908 57.729 L 56.94 58.159 L 56.94 63.104 C 55.707 63.735 54.425 64.215 53.092 64.545 C 51.759 64.874 50.289 65.039 48.684 65.039 Z" style="fill: rgb(255, 255, 255);"/>
  </g>
</svg>