<?xml version="1.0" encoding="utf-8"?>
<svg xmlns="http://www.w3.org/2000/svg" viewBox="11.089 9.803 416.911 79.476">
  <g transform="matrix(1, 0, 0, 1, 0, 0.067995)" style="">
    <title>Box E</title>
    <path style="fill: rgb(243, 179, 0);" d="M 13.9 11.845 L 143.843 11.845 C 143.843 11.845 399.843 11.845 399.843 11.845 L 428 48.9 L 399.843 87.101 C 399.843 87.101 143.843 87.101 143.843 87.101 L 13.9 87.101 C 13.9 87.101 13.9 87.101 13.9 87.101 L 13.9 11.845 C 13.9 11.845 13.9 11.845 13.9 11.845 Z">
      <title>Box</title>
    </path>
    <path d="M 35.096 64.523 L 35.526 61.083 L 35.526 37.863 L 35.096 34.423 L 54.274 34.423 L 54.274 39.927 L 51.694 39.497 L 41.374 39.497 L 41.374 46.678 L 52.941 46.678 L 52.941 52.096 L 50.361 51.752 L 41.374 51.752 L 41.374 59.449 L 51.694 59.449 L 54.274 59.019 L 54.274 64.523 L 35.096 64.523 Z" style="fill: rgb(255, 255, 255);"/>
  </g>
</svg>