<?xml version="1.0" encoding="utf-8"?>
<svg xmlns="http://www.w3.org/2000/svg" viewBox="11.089 9.803 224.911 79.476">
  <g transform="matrix(1, 0, 0, 1, 0, 0.067999)" style="">
    <title>Box B</title>
    <path style="fill: rgb(68, 186, 94);" d="M 13.9 11.845 L 143.843 11.845 C 143.843 11.845 207.843 11.845 207.843 11.845 L 236 48.9 L 207.843 87.101 C 207.843 87.101 143.843 87.101 143.843 87.101 L 13.9 87.101 C 13.9 87.101 13.9 87.101 13.9 87.101 L 13.9 11.845 C 13.9 11.845 13.9 11.845 13.9 11.845 Z">
      <title>Box</title>
    </path>
    <path d="M 35.096 64.523 L 35.526 61.083 L 35.526 37.863 L 35.096 34.423 L 47.824 34.423 C 50.719 34.423 53.02 35.075 54.726 36.379 C 56.431 37.684 57.284 39.612 57.284 42.163 C 57.284 43.74 56.904 45.101 56.145 46.248 C 55.385 47.395 54.116 48.169 52.339 48.57 L 52.339 49 C 54.002 49.344 55.399 50.082 56.532 51.214 C 57.664 52.347 58.23 54.06 58.23 56.353 C 58.23 58.274 57.814 59.829 56.983 61.019 C 56.152 62.208 55.005 63.09 53.543 63.663 C 52.081 64.236 50.39 64.523 48.469 64.523 L 35.096 64.523 Z M 41.46 59.535 L 45.803 59.535 C 48.01 59.535 49.573 59.277 50.49 58.761 C 51.407 58.245 51.866 57.242 51.866 55.751 C 51.866 54.26 51.415 53.228 50.512 52.655 C 49.609 52.082 48.039 51.795 45.803 51.795 L 41.46 51.795 L 41.46 59.535 Z M 41.46 46.807 L 45.287 46.807 C 47.036 46.807 48.426 46.585 49.458 46.14 C 50.49 45.696 51.006 44.7 51.006 43.152 C 51.006 41.604 50.49 40.593 49.458 40.12 C 48.426 39.647 47.036 39.411 45.287 39.411 L 41.46 39.411 L 41.46 46.807 Z" style="fill: rgb(255, 255, 255);"/>
  </g>
</svg>