<?xml version="1.0" encoding="utf-8"?>
<svg xmlns="http://www.w3.org/2000/svg" viewBox="11.089 9.803 162.539 79.476">
  <g>
    <title>Box A</title>
    <path style="fill: rgb(1, 173, 121);" d="M 13.9 11.845 L 143.843 11.845 C 143.843 11.845 143.843 11.845 143.843 11.845 L 172 48.9 L 143.843 87.101 C 143.843 87.101 143.843 87.101 143.843 87.101 L 13.9 87.101 C 13.9 87.101 13.9 87.101 13.9 87.101 L 13.9 11.845 C 13.9 11.845 13.9 11.845 13.9 11.845 Z">
      <title>Box</title>
    </path>
    <path d="M 32.43 64.523 L 42.922 34.423 L 50.748 34.423 L 61.24 64.523 L 54.575 64.523 L 53.715 61.083 L 47.48 41.475 L 47.05 38.809 L 46.62 38.809 L 46.19 41.475 L 39.955 61.083 L 39.095 64.523 L 32.43 64.523 Z M 38.02 57.643 L 38.02 52.483 L 55.65 52.483 L 55.65 57.643 L 38.02 57.643 Z" style="fill: rgb(255, 255, 255);"/>
  </g>
</svg>